<svg width="60" height="60" viewBox="0 0 60 60" fill="none" xmlns="http://www.w3.org/2000/svg">
<path d="M30 5C16.4475 5 5 16.4475 5 30C5 37.9725 8.98 45.195 15 49.81V50H15.255C19.425 53.1125 24.5325 55 30 55C35.4675 55 40.575 53.1125 44.745 50H45V49.81C51.02 45.195 55 37.975 55 30C55 16.4475 43.5525 5 30 5ZM20.185 47.3175C20.9275 43.955 23.92 41.4325 27.5 41.4325H32.5C36.08 41.4325 39.0725 43.9575 39.815 47.3175C36.895 49.01 33.54 50 30 50C26.46 50 23.105 49.01 20.185 47.3175ZM44.025 44.1025C42.1325 39.6025 37.68 36.4325 32.5 36.4325H27.5C22.32 36.4325 17.865 39.605 15.975 44.1025C12.3075 40.455 10 35.44 10 30C10 19.1575 19.1575 10 30 10C40.8425 10 50 19.1575 50 30C50 35.44 47.6925 40.455 44.025 44.1025Z" fill="#BBBBBD"/>
<path d="M30 15C24.3 15 20 19.3 20 25C20 30.7 24.3 35 30 35C35.7 35 40 30.7 40 25C40 19.3 35.7 15 30 15ZM30 30C27.055 30 25 27.945 25 25C25 22.055 27.055 20 30 20C32.945 20 35 22.055 35 25C35 27.945 32.945 30 30 30Z" fill="#BBBBBD"/>
</svg>
