<svg width="76" height="76" viewBox="0 0 76 76" fill="none" xmlns="http://www.w3.org/2000/svg">
<g clip-path="url(#clip0_1_762)">
<path d="M75.6293 68.2617L39.5401 5.75434C39.2208 5.20061 38.63 4.86017 37.9914 4.86017C37.3528 4.86017 36.7618 5.20081 36.4424 5.75434L0.23958 68.457C-0.0799415 69.0107 -0.0799415 69.6922 0.23958 70.2459C0.558895 70.7997 1.14969 71.1401 1.78853 71.1401H74.1934C74.1992 71.1401 74.2052 71.1401 74.2112 71.1401C75.199 71.1401 76 70.3402 76 69.3511C76 68.9407 75.8615 68.5638 75.6293 68.2617ZM4.88683 67.5628L37.9914 10.2258L71.0958 67.5628H4.88683V67.5628Z" fill="#BB6BD9"/>
<path d="M35.9999 28.6519V52.3479C35.9999 53.2608 36.8953 54 38.0001 54C39.1045 54 39.9999 53.2612 39.9999 52.3479V28.6519C39.9999 27.7404 39.1045 27 38.0001 27C36.8953 27.0002 35.9999 27.7406 35.9999 28.6519Z" fill="#BB6BD9"/>
<path d="M37.9999 58C36.8956 58 35.9999 58.8951 35.9999 59.9993C35.9999 61.1036 36.8956 62 37.9999 62C39.1041 62 39.9999 61.1033 39.9999 59.9993C39.9999 58.8951 39.1043 58 37.9999 58Z" fill="#BB6BD9"/>
</g>
<defs>
<clipPath id="clip0_1_762">
<rect width="76" height="76" fill="white"/>
</clipPath>
</defs>
</svg>
